<?xml version="1.0" encoding="UTF-8" standalone="no"?>
<!DOCTYPE svg PUBLIC "-//W3C//DTD SVG 1.1//EN" "http://www.w3.org/Graphics/SVG/1.1/DTD/svg11.dtd">
<svg xmlns="http://www.w3.org/2000/svg" version="1.1" viewBox="0.00 0.00 1773.00 1773.00">
<g stroke-width="2.00" fill="none" stroke-linecap="butt">
<path stroke="#f289ad" vector-effect="non-scaling-stroke" d="
  M 903.18 971.02
  Q 902.40 970.76 902.34 971.88
  Q 901.65 984.87 902.24 1006.50
  C 902.33 1009.95 902.71 1012.04 903.11 1014.05
  A 0.10 0.10 0.0 0 0 903.30 1014.03
  Q 903.54 994.54 903.48 994.00
  Q 903.30 992.05 903.91 976.00
  Q 904.00 973.63 903.56 971.32"
/>
<path stroke="#f289ad" vector-effect="non-scaling-stroke" d="
  M 854.32 961.57
  Q 854.41 965.74 854.60 969.85
  C 855.13 981.71 854.76 993.66 855.19 1004.75
  Q 855.21 1005.43 856.04 1008.39
  A 1.14 0.94 39.3 0 1 856.08 1008.59
  L 857.54 1019.16
  A 0.44 0.39 20.9 0 0 857.66 1019.39
  L 858.19 1019.85
  A 0.28 0.28 0.0 0 0 858.41 1019.53
  Q 857.94 1016.08 857.25 1012.65
  Q 856.77 1010.26 856.76 1005.69
  Q 856.68 983.58 855.28 961.38"
/>
<path stroke="#f289ad" vector-effect="non-scaling-stroke" d="
  M 755.42 1039.25
  Q 776.47 1046.72 796.24 1057.55
  Q 799.71 1059.45 802.14 1060.45
  C 807.26 1062.57 812.13 1065.66 816.85 1067.74
  Q 819.84 1069.06 843.07 1079.80
  Q 854.51 1085.09 863.31 1087.87
  Q 873.99 1091.25 884.27 1094.01
  Q 912.68 1101.66 943.29 1100.80
  Q 957.25 1100.41 972.26 1096.50
  Q 987.42 1092.55 999.33 1083.84
  Q 1004.93 1079.74 1008.01 1073.34
  C 1013.07 1062.82 1007.12 1049.05 998.66 1042.30
  Q 986.09 1032.27 968.39 1024.12
  Q 967.35 1023.64 966.72 1023.85
  A 0.06 0.06 0.0 0 0 966.70 1023.95
  Q 966.82 1024.06 966.91 1024.07
  Q 967.22 1024.14 967.25 1024.15
  C 972.53 1027.60 977.00 1032.64 981.85 1037.66
  Q 987.01 1043.01 989.44 1047.40
  C 992.78 1053.45 996.47 1063.52 991.87 1069.42
  C 988.29 1074.03 978.29 1075.78 972.19 1076.61
  C 948.58 1079.82 923.91 1077.46 901.03 1071.93
  Q 884.63 1067.97 863.82 1060.30
  Q 854.31 1056.80 843.52 1051.12
  Q 831.77 1044.92 812.93 1035.63
  Q 806.59 1032.50 802.61 1030.91
  C 796.81 1028.60 791.07 1025.54 784.82 1023.21
  Q 784.09 1022.93 777.35 1020.32
  C 770.05 1017.48 760.45 1015.04 753.81 1012.83
  Q 748.81 1011.16 741.60 1009.47
  Q 710.73 1002.22 681.01 1003.62
  Q 667.10 1004.27 650.02 1008.67
  C 643.35 1010.39 636.85 1013.00 631.21 1014.96
  Q 628.15 1016.03 625.33 1017.68
  A 0.16 0.16 0.0 0 0 625.45 1017.97
  Q 630.05 1016.67 634.82 1016.37
  Q 645.30 1015.71 656.60 1016.05
  C 664.55 1016.29 673.10 1017.70 681.88 1018.62
  Q 694.08 1019.91 709.99 1024.84"
/>
<path stroke="#f289ad" vector-effect="non-scaling-stroke" d="
  M 844.1709 1019.1809
  A 12.62 0.42 -97.6 0 0 845.4237 1031.7455
  A 12.62 0.42 -97.6 0 0 847.5091 1044.1991
  A 12.62 0.42 -97.6 0 0 846.2563 1031.6345
  A 12.62 0.42 -97.6 0 0 844.1709 1019.1809"
/>
<path stroke="#f289ad" vector-effect="non-scaling-stroke" d="
  M 913.06 1046.81
  L 906.85 1025.43
  A 0.02 0.02 0.0 0 0 906.83 1025.42
  L 906.56 1025.49
  A 10.94 0.72 73.8 0 0 908.92 1036.20
  L 909.04 1036.60
  A 10.94 0.72 73.8 0 0 912.78 1046.91
  L 913.05 1046.83
  A 0.02 0.02 0.0 0 0 913.06 1046.81"
/>
<path stroke="#f289ad" vector-effect="non-scaling-stroke" d="
  M 860.84 1038.87
  L 861.35 1038.80
  A 0.15 0.15 0.0 0 0 861.48 1038.63
  L 861.46 1038.48
  A 8.99 0.29 82.9 0 0 860.06 1029.59
  L 859.83 1029.62
  A 8.99 0.29 82.9 0 0 860.65 1038.58
  L 860.67 1038.74
  A 0.15 0.15 0.0 0 0 860.84 1038.87"
/>
<path stroke="#f289ad" vector-effect="non-scaling-stroke" d="
  M 914.4427 1048.1136
  A 0.32 0.32 0.0 0 0 914.0384 1047.9102
  L 914.0004 1047.9228
  A 0.32 0.32 0.0 0 0 913.7971 1048.3271
  L 919.6373 1065.9864
  A 0.32 0.32 0.0 0 0 920.0416 1066.1898
  L 920.0796 1066.1772
  A 0.32 0.32 0.0 0 0 920.2829 1065.7729
  L 914.4427 1048.1136"
/>
<path stroke="#f289ad" vector-effect="non-scaling-stroke" d="
  M 920.4922 1068.7198
  A 2.27 0.52 -108.7 0 0 920.7275 1071.0367
  A 2.27 0.52 -108.7 0 0 921.9478 1073.0202
  A 2.27 0.52 -108.7 0 0 921.7125 1070.7033
  A 2.27 0.52 -108.7 0 0 920.4922 1068.7198"
/>
</g>
<path fill="#e5135b" d="
  M 1026.16 429.54
  Q 1021.50 435.75 1018.39 442.99
  C 1016.75 446.80 1014.92 449.65 1013.45 453.13
  Q 1012.63 455.07 1009.70 460.69
  Q 1006.38 467.05 1004.53 473.91
  C 998.80 486.93 992.92 500.35 987.90 513.26
  Q 971.09 556.46 958.19 600.20
  Q 954.92 611.29 947.31 640.32
  C 936.58 681.24 928.33 722.77 921.99 764.50
  Q 919.66 779.82 915.44 810.65
  C 910.20 848.87 907.15 885.76 905.27 924.25
  Q 905.08 928.02 903.14 970.48
  Q 903.12 970.77 903.18 971.02
  Q 902.40 970.76 902.34 971.88
  Q 901.65 984.87 902.24 1006.50
  C 902.33 1009.95 902.71 1012.04 903.11 1014.05
  A 0.10 0.10 0.0 0 0 903.30 1014.03
  Q 903.54 994.54 903.48 994.00
  Q 903.30 992.05 903.91 976.00
  Q 904.00 973.63 903.56 971.32
  C 910.00 971.56 916.58 973.53 927.21 976.58
  Q 952.27 983.78 980.77 995.01
  C 1006.99 1005.34 1032.34 1019.02 1055.19 1033.35
  Q 1066.57 1040.50 1080.98 1051.56
  Q 1094.94 1062.29 1104.67 1072.44
  C 1116.77 1085.07 1127.04 1095.17 1136.27 1108.52
  C 1166.12 1151.69 1181.02 1201.99 1181.54 1254.50
  C 1182.14 1314.79 1167.14 1374.50 1136.44 1426.38
  Q 1133.40 1429.16 1130.74 1434.99
  A 2.31 2.30 -53.1 0 0 1131.09 1437.46
  Q 1131.19 1437.59 1131.19 1437.91
  A 1.38 1.36 -24.0 0 1 1130.81 1438.88
  Q 1127.87 1441.99 1123.27 1442.37
  A 1.14 1.14 0.0 0 0 1122.43 1442.84
  Q 1121.39 1444.24 1120.40 1445.15
  Q 1115.05 1450.04 1109.05 1454.88
  Q 1103.66 1459.23 1096.48 1462.88
  Q 1084.33 1469.07 1071.73 1471.72
  Q 1069.70 1472.14 1067.75 1472.22
  Q 1061.01 1472.50 1046.68 1472.33
  Q 1028.33 1472.11 1013.45 1461.94
  C 1002.03 1454.14 991.94 1440.42 987.03 1427.82
  Q 982.92 1417.29 979.55 1403.98
  Q 977.85 1397.29 975.12 1379.40
  Q 970.13 1346.63 965.86 1327.81
  Q 963.15 1315.91 961.67 1310.57
  Q 960.68 1307.00 956.32 1294.79
  Q 954.51 1289.71 951.52 1284.42
  Q 947.41 1277.17 945.51 1274.60
  Q 942.10 1269.97 935.70 1264.98
  C 930.40 1260.85 922.22 1259.40 915.95 1259.92
  A 6.56 6.29 31.6 0 0 914.25 1260.29
  Q 906.37 1263.10 901.64 1266.13
  Q 892.64 1271.90 885.52 1278.55
  Q 879.20 1284.46 874.50 1294.26
  Q 864.53 1315.04 858.86 1333.22
  Q 858.16 1335.46 857.42 1337.77
  Q 854.13 1348.03 850.45 1359.40
  C 849.12 1363.51 848.36 1367.27 846.95 1371.09
  C 843.45 1380.50 840.69 1392.90 836.51 1403.43
  C 833.58 1410.81 831.55 1417.94 827.20 1425.56
  Q 826.35 1427.05 820.28 1438.02
  Q 816.40 1445.01 808.16 1455.62
  A 1.84 1.76 -85.4 0 1 807.63 1456.09
  C 806.15 1457.00 805.48 1458.74 804.22 1460.16
  Q 794.15 1471.51 778.59 1470.37
  C 770.52 1469.78 763.67 1463.36 758.77 1457.23
  Q 748.70 1444.63 740.48 1430.04
  Q 736.41 1422.80 725.32 1399.66
  Q 721.85 1392.42 719.88 1389.00
  C 714.56 1379.75 710.61 1371.04 705.18 1362.98
  C 692.10 1343.57 677.19 1326.92 655.77 1317.27
  Q 652.53 1315.81 638.39 1310.60
  Q 628.68 1307.02 620.38 1305.98
  Q 599.60 1303.37 578.34 1308.36
  Q 567.45 1310.91 559.82 1314.62
  Q 549.86 1319.46 542.77 1324.31
  Q 536.33 1328.71 529.11 1334.61
  C 518.70 1343.13 512.01 1353.71 505.33 1365.59
  C 501.73 1371.99 497.55 1378.12 495.66 1384.99
  Q 493.61 1392.44 489.77 1399.07
  A 16.06 15.54 -21.9 0 0 488.43 1402.08
  L 487.09 1406.20
  Q 487.19 1402.37 485.71 1399.30
  C 475.96 1379.11 467.32 1358.33 461.78 1336.99
  Q 455.29 1312.00 452.35 1287.13
  C 450.72 1273.35 450.29 1260.33 449.68 1245.50
  C 449.26 1235.35 450.18 1224.72 451.00 1213.96
  Q 455.09 1160.41 476.09 1110.56
  Q 486.11 1086.76 499.91 1066.90
  C 524.52 1031.50 557.12 1003.56 595.15 985.16
  C 646.49 960.32 705.30 950.69 761.52 951.85
  Q 795.28 952.55 831.55 957.43
  Q 845.50 959.31 854.32 961.57
  Q 854.41 965.74 854.60 969.85
  C 855.13 981.71 854.76 993.66 855.19 1004.75
  Q 855.21 1005.43 856.04 1008.39
  A 1.14 0.94 39.3 0 1 856.08 1008.59
  L 857.54 1019.16
  A 0.44 0.39 20.9 0 0 857.66 1019.39
  L 858.19 1019.85
  A 0.28 0.28 0.0 0 0 858.41 1019.53
  Q 857.94 1016.08 857.25 1012.65
  Q 856.77 1010.26 856.76 1005.69
  Q 856.68 983.58 855.28 961.38
  Q 855.39 939.04 857.38 916.49
  Q 861.54 869.37 862.18 862.00
  Q 864.11 839.91 869.64 798.62
  Q 870.85 789.51 877.01 751.97
  C 885.03 703.06 895.82 652.37 907.88 607.34
  Q 914.42 582.90 925.41 548.14
  Q 953.65 458.81 999.82 375.60
  Q 1040.44 302.40 1096.99 240.24
  Q 1107.09 229.13 1123.69 212.94
  Q 1155.71 181.72 1182.75 161.76
  Q 1204.44 145.74 1228.50 130.43
  Q 1241.93 121.88 1252.45 116.22
  C 1269.48 107.05 1286.63 98.41 1300.22 86.23
  C 1303.82 83.00 1306.82 78.78 1310.19 75.52
  C 1317.09 68.86 1324.78 60.60 1334.25 56.08
  C 1355.36 46.01 1377.13 54.99 1389.93 73.07
  Q 1398.41 85.04 1400.66 99.17
  C 1404.89 125.69 1376.72 131.92 1357.32 132.46
  C 1329.80 133.22 1304.26 144.13 1280.53 158.28
  Q 1261.67 169.53 1250.39 177.14
  Q 1238.68 185.04 1214.76 202.51
  C 1188.73 221.53 1165.10 242.74 1141.67 266.17
  C 1106.50 301.33 1074.20 346.51 1047.25 391.02
  Q 1041.24 400.96 1026.16 429.54
  Z
  M 709.99 1024.84
  Q 709.61 1025.02 709.60 1025.04
  A 0.65 0.64 -73.2 0 0 710.02 1025.83
  Q 715.32 1027.60 719.95 1028.69
  Q 724.68 1029.80 734.36 1033.71
  A 5.23 5.02 60.2 0 0 735.24 1033.97
  Q 741.95 1035.36 750.57 1038.91
  Q 753.25 1040.02 755.42 1039.25
  Q 776.47 1046.72 796.24 1057.55
  Q 799.71 1059.45 802.14 1060.45
  C 807.26 1062.57 812.13 1065.66 816.85 1067.74
  Q 819.84 1069.06 843.07 1079.80
  Q 854.51 1085.09 863.31 1087.87
  Q 873.99 1091.25 884.27 1094.01
  Q 912.68 1101.66 943.29 1100.80
  Q 957.25 1100.41 972.26 1096.50
  Q 987.42 1092.55 999.33 1083.84
  Q 1004.93 1079.74 1008.01 1073.34
  C 1013.07 1062.82 1007.12 1049.05 998.66 1042.30
  Q 986.09 1032.27 968.39 1024.12
  Q 967.35 1023.64 966.72 1023.85
  A 0.06 0.06 0.0 0 0 966.70 1023.95
  Q 966.82 1024.06 966.91 1024.07
  Q 967.22 1024.14 967.25 1024.15
  C 972.53 1027.60 977.00 1032.64 981.85 1037.66
  Q 987.01 1043.01 989.44 1047.40
  C 992.78 1053.45 996.47 1063.52 991.87 1069.42
  C 988.29 1074.03 978.29 1075.78 972.19 1076.61
  C 948.58 1079.82 923.91 1077.46 901.03 1071.93
  Q 884.63 1067.97 863.82 1060.30
  Q 854.31 1056.80 843.52 1051.12
  Q 831.77 1044.92 812.93 1035.63
  Q 806.59 1032.50 802.61 1030.91
  C 796.81 1028.60 791.07 1025.54 784.82 1023.21
  Q 784.09 1022.93 777.35 1020.32
  C 770.05 1017.48 760.45 1015.04 753.81 1012.83
  Q 748.81 1011.16 741.60 1009.47
  Q 710.73 1002.22 681.01 1003.62
  Q 667.10 1004.27 650.02 1008.67
  C 643.35 1010.39 636.85 1013.00 631.21 1014.96
  Q 628.15 1016.03 625.33 1017.68
  A 0.16 0.16 0.0 0 0 625.45 1017.97
  Q 630.05 1016.67 634.82 1016.37
  Q 645.30 1015.71 656.60 1016.05
  C 664.55 1016.29 673.10 1017.70 681.88 1018.62
  Q 694.08 1019.91 709.99 1024.84
  Z
  M 844.1709 1019.1809
  A 12.62 0.42 -97.6 0 0 845.4237 1031.7455
  A 12.62 0.42 -97.6 0 0 847.5091 1044.1991
  A 12.62 0.42 -97.6 0 0 846.2563 1031.6345
  A 12.62 0.42 -97.6 0 0 844.1709 1019.1809
  Z
  M 913.06 1046.81
  L 906.85 1025.43
  A 0.02 0.02 0.0 0 0 906.83 1025.42
  L 906.56 1025.49
  A 10.94 0.72 73.8 0 0 908.92 1036.20
  L 909.04 1036.60
  A 10.94 0.72 73.8 0 0 912.78 1046.91
  L 913.05 1046.83
  A 0.02 0.02 0.0 0 0 913.06 1046.81
  Z
  M 860.84 1038.87
  L 861.35 1038.80
  A 0.15 0.15 0.0 0 0 861.48 1038.63
  L 861.46 1038.48
  A 8.99 0.29 82.9 0 0 860.06 1029.59
  L 859.83 1029.62
  A 8.99 0.29 82.9 0 0 860.65 1038.58
  L 860.67 1038.74
  A 0.15 0.15 0.0 0 0 860.84 1038.87
  Z
  M 914.4427 1048.1136
  A 0.32 0.32 0.0 0 0 914.0384 1047.9102
  L 914.0004 1047.9228
  A 0.32 0.32 0.0 0 0 913.7971 1048.3271
  L 919.6373 1065.9864
  A 0.32 0.32 0.0 0 0 920.0416 1066.1898
  L 920.0796 1066.1772
  A 0.32 0.32 0.0 0 0 920.2829 1065.7729
  L 914.4427 1048.1136
  Z
  M 920.4922 1068.7198
  A 2.27 0.52 -108.7 0 0 920.7275 1071.0367
  A 2.27 0.52 -108.7 0 0 921.9478 1073.0202
  A 2.27 0.52 -108.7 0 0 921.7125 1070.7033
  A 2.27 0.52 -108.7 0 0 920.4922 1068.7198
  Z
  M 626.72 1114.69
  Q 616.43 1113.40 605.12 1118.12
  C 595.70 1122.04 588.05 1126.69 582.28 1133.77
  C 577.84 1139.22 574.43 1143.48 572.25 1150.51
  C 567.75 1165.01 567.62 1181.38 569.16 1196.74
  Q 570.28 1207.96 573.93 1218.43
  Q 574.72 1220.71 576.14 1223.30
  C 578.71 1228.00 581.35 1232.39 586.01 1235.02
  Q 591.02 1237.86 595.77 1237.38
  C 604.73 1236.49 612.94 1231.73 620.73 1226.38
  Q 626.61 1222.35 633.82 1215.06
  Q 645.26 1203.49 647.46 1201.22
  C 653.62 1194.87 657.93 1190.15 660.86 1182.85
  C 665.04 1172.44 667.11 1159.10 664.43 1148.63
  Q 661.84 1138.47 655.14 1129.40
  C 650.58 1123.23 642.82 1118.95 635.78 1116.63
  C 633.85 1116.00 632.13 1115.97 630.60 1115.47
  Q 629.14 1115.00 626.72 1114.69
  Z
  M 1025.6840 1223.3261
  A 18.62 18.00 -64.2 0 0 1001.3743 1232.2558
  A 18.62 18.00 -64.2 0 0 1009.4760 1256.8539
  A 18.62 18.00 -64.2 0 0 1033.7857 1247.9242
  A 18.62 18.00 -64.2 0 0 1025.6840 1223.3261
  Z
  M 1069.04 1393.02
  Q 1070.55 1393.64 1073.51 1393.84
  Q 1087.12 1394.76 1099.51 1388.73
  C 1108.48 1384.36 1115.83 1373.84 1118.81 1364.68
  Q 1121.58 1356.18 1119.69 1345.63
  Q 1118.01 1336.23 1112.83 1327.63
  C 1104.62 1314.01 1088.06 1308.68 1072.60 1310.96
  C 1063.55 1312.29 1057.24 1316.26 1050.73 1322.33
  Q 1036.30 1335.81 1037.66 1355.42
  Q 1038.20 1363.08 1041.63 1369.94
  C 1047.63 1381.94 1054.94 1390.09 1068.60 1392.89
  A 2.06 1.87 -25.9 0 1 1069.04 1393.02
  Z"
/>
<path fill="#e5135b" d="
  M 1026.16 429.54
  L 1004.53 473.91
  Q 1006.38 467.05 1009.70 460.69
  Q 1012.63 455.07 1013.45 453.13
  C 1014.92 449.65 1016.75 446.80 1018.39 442.99
  Q 1021.50 435.75 1026.16 429.54
  Z"
/>
<path fill="#ffffff" d="
  M 855.28 961.38
  Q 856.68 983.58 856.76 1005.69
  Q 856.77 1010.26 857.25 1012.65
  Q 857.94 1016.08 858.41 1019.53
  A 0.28 0.28 0.0 0 1 858.19 1019.85
  L 857.66 1019.39
  A 0.44 0.39 20.9 0 1 857.54 1019.16
  L 856.08 1008.59
  A 1.14 0.94 39.3 0 0 856.04 1008.39
  Q 855.21 1005.43 855.19 1004.75
  C 854.76 993.66 855.13 981.71 854.60 969.85
  Q 854.41 965.74 854.32 961.57
  Q 854.80 961.47 855.28 961.38
  Z"
/>
<path fill="#ffffff" d="
  M 903.18 971.02
  L 903.56 971.32
  Q 904.00 973.63 903.91 976.00
  Q 903.30 992.05 903.48 994.00
  Q 903.54 994.54 903.30 1014.03
  A 0.10 0.10 0.0 0 1 903.11 1014.05
  C 902.71 1012.04 902.33 1009.95 902.24 1006.50
  Q 901.65 984.87 902.34 971.88
  Q 902.40 970.76 903.18 971.02
  Z"
/>
<path fill="#ffffff" d="
  M 755.42 1039.25
  Q 746.03 1035.46 736.64 1032.56
  Q 723.36 1028.45 709.99 1024.84
  Q 694.08 1019.91 681.88 1018.62
  C 673.10 1017.70 664.55 1016.29 656.60 1016.05
  Q 645.30 1015.71 634.82 1016.37
  Q 630.05 1016.67 625.45 1017.97
  A 0.16 0.16 0.0 0 1 625.33 1017.68
  Q 628.15 1016.03 631.21 1014.96
  C 636.85 1013.00 643.35 1010.39 650.02 1008.67
  Q 667.10 1004.27 681.01 1003.62
  Q 710.73 1002.22 741.60 1009.47
  Q 748.81 1011.16 753.81 1012.83
  C 760.45 1015.04 770.05 1017.48 777.35 1020.32
  Q 784.09 1022.93 784.82 1023.21
  C 791.07 1025.54 796.81 1028.60 802.61 1030.91
  Q 806.59 1032.50 812.93 1035.63
  Q 831.77 1044.92 843.52 1051.12
  Q 854.31 1056.80 863.82 1060.30
  Q 884.63 1067.97 901.03 1071.93
  C 923.91 1077.46 948.58 1079.82 972.19 1076.61
  C 978.29 1075.78 988.29 1074.03 991.87 1069.42
  C 996.47 1063.52 992.78 1053.45 989.44 1047.40
  Q 987.01 1043.01 981.85 1037.66
  C 977.00 1032.64 972.53 1027.60 967.25 1024.15
  Q 967.22 1024.14 966.91 1024.07
  Q 966.82 1024.06 966.70 1023.95
  A 0.06 0.06 0.0 0 1 966.72 1023.85
  Q 967.35 1023.64 968.39 1024.12
  Q 986.09 1032.27 998.66 1042.30
  C 1007.12 1049.05 1013.07 1062.82 1008.01 1073.34
  Q 1004.93 1079.74 999.33 1083.84
  Q 987.42 1092.55 972.26 1096.50
  Q 957.25 1100.41 943.29 1100.80
  Q 912.68 1101.66 884.27 1094.01
  Q 873.99 1091.25 863.31 1087.87
  Q 854.51 1085.09 843.07 1079.80
  Q 819.84 1069.06 816.85 1067.74
  C 812.13 1065.66 807.26 1062.57 802.14 1060.45
  Q 799.71 1059.45 796.24 1057.55
  Q 776.47 1046.72 755.42 1039.25
  Z"
/>
<ellipse fill="#ffffff" cx="0.00" cy="0.00" transform="translate(845.84,1031.69) rotate(-97.6)" rx="12.62" ry="0.42"/>
<path fill="#b61a42" d="
  M 709.99 1024.84
  Q 723.36 1028.45 736.64 1032.56
  Q 746.03 1035.46 755.42 1039.25
  Q 753.25 1040.02 750.57 1038.91
  Q 741.95 1035.36 735.24 1033.97
  A 5.23 5.02 60.2 0 1 734.36 1033.71
  Q 724.68 1029.80 719.95 1028.69
  Q 715.32 1027.60 710.02 1025.83
  A 0.65 0.64 -73.2 0 1 709.60 1025.04
  Q 709.61 1025.02 709.99 1024.84
  Z"
/>
<path fill="#ffffff" d="
  M 913.06 1046.81
  A 0.02 0.02 0.0 0 1 913.05 1046.83
  L 912.78 1046.91
  A 10.94 0.72 73.8 0 1 909.04 1036.60
  L 908.92 1036.20
  A 10.94 0.72 73.8 0 1 906.56 1025.49
  L 906.83 1025.42
  A 0.02 0.02 0.0 0 1 906.85 1025.43
  L 913.06 1046.81
  Z"
/>
<path fill="#ffffff" d="
  M 860.84 1038.87
  A 0.15 0.15 0.0 0 1 860.67 1038.74
  L 860.65 1038.58
  A 8.99 0.29 82.9 0 1 859.83 1029.62
  L 860.06 1029.59
  A 8.99 0.29 82.9 0 1 861.46 1038.48
  L 861.48 1038.63
  A 0.15 0.15 0.0 0 1 861.35 1038.80
  L 860.84 1038.87
  Z"
/>
<rect fill="#ffffff" x="-0.34" y="-9.62" transform="translate(917.04,1057.05) rotate(-18.3)" width="0.68" height="19.24" rx="0.32"/>
<ellipse fill="#ffffff" cx="0.00" cy="0.00" transform="translate(921.22,1070.87) rotate(-108.7)" rx="2.27" ry="0.52"/>
<path fill="#b61a42" d="
  M 630.60 1115.47
  C 632.13 1115.97 633.85 1116.00 635.78 1116.63
  C 642.82 1118.95 650.58 1123.23 655.14 1129.40
  Q 661.84 1138.47 664.43 1148.63
  C 667.11 1159.10 665.04 1172.44 660.86 1182.85
  C 657.93 1190.15 653.62 1194.87 647.46 1201.22
  Q 645.26 1203.49 633.82 1215.06
  Q 626.61 1222.35 620.73 1226.38
  C 612.94 1231.73 604.73 1236.49 595.77 1237.38
  Q 591.02 1237.86 586.01 1235.02
  C 581.35 1232.39 578.71 1228.00 576.14 1223.30
  Q 574.72 1220.71 573.93 1218.43
  Q 570.28 1207.96 569.16 1196.74
  C 567.62 1181.38 567.75 1165.01 572.25 1150.51
  C 574.43 1143.48 577.84 1139.22 582.28 1133.77
  C 588.05 1126.69 595.70 1122.04 605.12 1118.12
  Q 616.43 1113.40 626.72 1114.69
  Q 629.14 1115.00 630.60 1115.47
  Z"
/>
<ellipse fill="#b61a42" cx="0.00" cy="0.00" transform="translate(1017.58,1240.09) rotate(-64.2)" rx="18.62" ry="18.00"/>
<path fill="#b61a42" d="
  M 1136.44 1426.38
  Q 1134.53 1430.08 1132.57 1433.55
  Q 1131.17 1436.03 1132.63 1438.28
  A 1.10 1.10 0.0 0 1 1132.72 1439.31
  Q 1125.33 1456.19 1122.30 1460.80
  Q 1103.47 1489.47 1080.47 1513.70
  Q 1075.72 1518.70 1056.99 1535.98
  Q 1055.80 1537.08 1039.19 1550.37
  Q 1029.79 1557.89 1020.62 1563.74
  Q 1002.34 1575.39 992.38 1580.84
  Q 935.10 1612.18 868.51 1622.50
  Q 851.55 1625.13 831.51 1625.51
  Q 803.65 1626.03 794.33 1625.34
  Q 776.25 1623.99 751.77 1619.47
  C 682.84 1606.75 618.89 1573.97 567.62 1525.62
  Q 555.33 1514.03 544.31 1502.20
  Q 528.89 1485.64 513.91 1463.15
  Q 500.38 1442.83 486.85 1415.19
  A 2.29 2.27 -56.1 0 1 486.63 1414.05
  L 487.09 1406.20
  L 488.43 1402.08
  A 16.06 15.54 -21.9 0 1 489.77 1399.07
  Q 493.61 1392.44 495.66 1384.99
  C 497.55 1378.12 501.73 1371.99 505.33 1365.59
  C 512.01 1353.71 518.70 1343.13 529.11 1334.61
  Q 536.33 1328.71 542.77 1324.31
  Q 549.86 1319.46 559.82 1314.62
  Q 567.45 1310.91 578.34 1308.36
  Q 599.60 1303.37 620.38 1305.98
  Q 628.68 1307.02 638.39 1310.60
  Q 652.53 1315.81 655.77 1317.27
  C 677.19 1326.92 692.10 1343.57 705.18 1362.98
  C 710.61 1371.04 714.56 1379.75 719.88 1389.00
  Q 721.85 1392.42 725.32 1399.66
  Q 736.41 1422.80 740.48 1430.04
  Q 748.70 1444.63 758.77 1457.23
  C 763.67 1463.36 770.52 1469.78 778.59 1470.37
  Q 794.15 1471.51 804.22 1460.16
  C 805.48 1458.74 806.15 1457.00 807.63 1456.09
  A 1.84 1.76 -85.4 0 0 808.16 1455.62
  Q 816.40 1445.01 820.28 1438.02
  Q 826.35 1427.05 827.20 1425.56
  C 831.55 1417.94 833.58 1410.81 836.51 1403.43
  C 840.69 1392.90 843.45 1380.50 846.95 1371.09
  C 848.36 1367.27 849.12 1363.51 850.45 1359.40
  Q 854.13 1348.03 857.42 1337.77
  Q 858.16 1335.46 858.86 1333.22
  Q 864.53 1315.04 874.50 1294.26
  Q 879.20 1284.46 885.52 1278.55
  Q 892.64 1271.90 901.64 1266.13
  Q 906.37 1263.10 914.25 1260.29
  A 6.56 6.29 31.6 0 1 915.95 1259.92
  C 922.22 1259.40 930.40 1260.85 935.70 1264.98
  Q 942.10 1269.97 945.51 1274.60
  Q 947.41 1277.17 951.52 1284.42
  Q 954.51 1289.71 956.32 1294.79
  Q 960.68 1307.00 961.67 1310.57
  Q 963.15 1315.91 965.86 1327.81
  Q 970.13 1346.63 975.12 1379.40
  Q 977.85 1397.29 979.55 1403.98
  Q 982.92 1417.29 987.03 1427.82
  C 991.94 1440.42 1002.03 1454.14 1013.45 1461.94
  Q 1028.33 1472.11 1046.68 1472.33
  Q 1061.01 1472.50 1067.75 1472.22
  Q 1069.70 1472.14 1071.73 1471.72
  Q 1084.33 1469.07 1096.48 1462.88
  Q 1103.66 1459.23 1109.05 1454.88
  Q 1115.05 1450.04 1120.40 1445.15
  Q 1121.39 1444.24 1122.43 1442.84
  A 1.14 1.14 0.0 0 1 1123.27 1442.37
  Q 1127.87 1441.99 1130.81 1438.88
  A 1.38 1.36 -24.0 0 0 1131.19 1437.91
  Q 1131.19 1437.59 1131.09 1437.46
  A 2.31 2.30 -53.1 0 1 1130.74 1434.99
  Q 1133.40 1429.16 1136.44 1426.38
  Z"
/>
<path fill="#b61a42" d="
  M 1068.60 1392.89
  C 1054.94 1390.09 1047.63 1381.94 1041.63 1369.94
  Q 1038.20 1363.08 1037.66 1355.42
  Q 1036.30 1335.81 1050.73 1322.33
  C 1057.24 1316.26 1063.55 1312.29 1072.60 1310.96
  C 1088.06 1308.68 1104.62 1314.01 1112.83 1327.63
  Q 1118.01 1336.23 1119.69 1345.63
  Q 1121.58 1356.18 1118.81 1364.68
  C 1115.83 1373.84 1108.48 1384.36 1099.51 1388.73
  Q 1087.12 1394.76 1073.51 1393.84
  Q 1070.55 1393.64 1069.04 1393.02
  A 2.06 1.87 -25.9 0 0 1068.60 1392.89
  Z"
/>
</svg>
