<?xml version="1.0" encoding="UTF-8" standalone="no"?>
<!DOCTYPE svg PUBLIC "-//W3C//DTD SVG 1.1//EN" "http://www.w3.org/Graphics/SVG/1.1/DTD/svg11.dtd">
<svg xmlns="http://www.w3.org/2000/svg" version="1.1" viewBox="0.00 0.00 2190.00 395.00">
<path fill="#e70b5a" d="
  M 621.42 0.00
  Q 633.63 0.80 640.65 10.33
  C 647.86 20.14 648.70 29.51 649.07 42.02
  Q 649.50 56.00 649.19 69.43
  Q 649.01 77.07 647.10 96.78
  C 642.96 139.31 640.15 195.05 637.99 224.75
  Q 637.50 231.48 636.57 240.40
  A 0.44 0.44 0.0 0 0 637.10 240.87
  Q 637.45 240.79 637.91 240.43
  C 655.92 226.49 675.79 206.03 700.81 208.14
  C 718.58 209.64 725.38 226.38 721.09 242.28
  Q 719.40 248.57 711.78 256.81
  C 701.62 267.80 689.66 277.10 677.13 285.88
  A 1.12 1.11 -35.4 0 0 676.86 287.45
  Q 678.34 289.47 678.82 290.02
  C 692.84 305.77 707.18 322.79 717.67 341.95
  C 722.11 350.07 725.28 359.50 721.30 368.32
  C 715.81 380.48 700.73 381.68 690.34 375.64
  Q 685.48 372.81 680.60 368.13
  C 662.67 350.94 648.00 330.88 634.96 309.31
  A 0.47 0.47 0.0 0 0 634.11 309.41
  Q 633.48 311.32 633.35 312.42
  C 631.07 330.81 628.86 348.65 623.33 366.26
  C 620.17 376.33 615.38 383.08 607.23 388.73
  Q 599.45 394.13 590.09 395.00
  L 585.01 395.00
  Q 576.00 394.39 571.27 387.98
  C 561.65 374.98 558.98 356.85 558.20 340.49
  Q 557.49 325.78 557.24 313.69
  A 0.20 0.20 0.0 0 0 556.87 313.60
  Q 551.87 322.93 546.52 332.03
  C 538.97 344.88 528.12 354.99 516.02 363.57
  Q 494.07 379.13 466.95 378.05
  Q 442.92 377.09 425.05 362.94
  C 410.35 351.29 398.61 334.23 392.37 316.64
  Q 391.12 313.13 387.89 303.58
  A 0.41 0.41 0.0 0 0 387.12 303.56
  C 382.24 316.26 378.11 325.94 370.80 337.26
  C 360.62 353.01 346.37 364.62 329.33 372.34
  C 317.36 377.75 303.96 378.39 291.24 377.79
  C 268.24 376.70 245.83 361.53 232.65 343.59
  C 228.34 337.73 225.56 331.90 222.06 325.59
  A 0.45 0.45 0.0 0 0 221.23 325.67
  Q 220.86 326.80 220.80 327.56
  C 220.10 335.94 219.38 342.81 215.89 349.35
  Q 206.74 366.46 189.94 373.27
  C 179.17 377.64 166.97 379.48 154.50 378.88
  C 131.81 377.80 109.81 374.16 87.22 370.07
  C 73.22 367.54 57.98 364.28 44.78 357.76
  C 34.58 352.72 24.45 345.85 17.83 336.89
  Q 11.20 327.91 6.78 314.70
  Q 1.81 299.84 1.21 286.50
  C 0.18 263.89 0.25 241.25 0.00 218.61
  L 0.00 147.11
  C 0.44 125.46 0.49 103.99 4.72 82.51
  C 8.42 63.69 16.38 43.31 29.89 29.66
  C 36.56 22.92 47.19 18.66 56.29 17.48
  Q 69.85 15.73 81.75 24.54
  Q 88.13 29.27 91.39 33.86
  C 98.38 43.70 103.59 54.34 106.29 66.73
  Q 110.97 88.19 112.08 107.52
  Q 113.13 125.86 111.83 153.51
  Q 110.89 173.79 108.40 209.12
  Q 106.84 231.29 108.31 249.26
  Q 108.60 252.85 109.27 255.41
  A 2.28 2.27 84.3 0 0 111.33 257.10
  Q 129.42 258.21 142.74 259.46
  Q 164.84 261.52 183.04 267.69
  Q 190.52 270.22 198.20 275.31
  C 202.33 278.04 205.74 281.69 209.60 285.14
  A 0.44 0.44 0.0 0 0 210.33 284.74
  Q 209.74 281.05 209.57 278.51
  Q 208.75 266.66 208.87 250.15
  Q 208.97 234.86 211.48 223.47
  Q 216.54 200.48 228.28 178.83
  Q 247.42 143.54 283.25 129.25
  C 292.74 125.47 300.53 124.70 310.74 124.57
  Q 322.62 124.42 330.76 124.91
  Q 333.91 125.10 338.32 126.50
  C 348.22 129.63 358.48 134.69 365.23 140.52
  C 374.54 148.55 378.72 161.04 381.98 173.55
  Q 383.46 179.25 388.38 199.60
  Q 388.79 201.31 389.57 202.87
  A 0.73 0.73 0.0 0 0 390.91 202.79
  Q 398.40 181.16 412.05 162.78
  Q 419.69 152.50 430.81 143.79
  Q 457.78 122.64 490.75 124.02
  Q 516.85 125.10 533.43 137.88
  Q 551.21 151.59 556.17 176.32
  Q 557.27 181.81 558.80 188.81
  A 0.58 0.58 0.0 0 0 559.93 188.79
  C 561.21 181.42 561.83 172.90 562.98 164.05
  Q 566.55 136.54 570.29 101.76
  Q 573.66 70.44 580.12 43.14
  Q 582.09 34.83 586.21 25.07
  C 591.24 13.14 602.51 1.55 615.89 0.00
  L 621.42 0.00
  Z
  M 339.45 225.75
  Q 337.59 226.47 336.03 228.50
  Q 323.99 244.13 318.39 263.81
  Q 315.92 272.47 317.70 279.59
  C 318.86 284.24 321.68 287.98 327.05 286.56
  C 336.54 284.04 340.49 264.50 341.06 256.26
  C 341.67 247.46 342.44 236.14 340.71 226.46
  A 0.94 0.94 0.0 0 0 339.45 225.75
  Z
  M 512.49 226.39
  Q 510.70 227.25 509.23 229.30
  Q 499.52 242.86 493.08 261.33
  C 491.11 266.96 487.46 284.09 496.03 286.73
  C 503.83 289.13 509.64 278.75 511.13 272.84
  C 514.85 258.09 514.87 242.64 514.19 227.41
  A 1.19 1.19 0.0 0 0 512.49 226.39
  Z"
/>
<path fill="#e70b5a" d="
  M 1521.51 39.01
  Q 1532.17 38.96 1542.12 42.62
  C 1557.08 48.14 1562.22 59.81 1563.80 74.86
  C 1566.05 96.33 1556.13 113.22 1539.15 125.41
  Q 1525.89 134.94 1510.19 141.29
  C 1501.87 144.65 1489.57 147.80 1482.91 149.66
  Q 1470.45 153.16 1463.34 163.45
  Q 1454.04 176.93 1447.60 192.41
  Q 1443.36 202.60 1443.12 208.41
  Q 1442.88 214.07 1442.91 219.54
  C 1442.98 230.57 1452.09 241.86 1460.75 247.25
  Q 1471.18 253.74 1485.01 256.77
  Q 1510.28 262.30 1515.61 263.64
  C 1525.85 266.22 1538.48 270.12 1545.66 276.86
  Q 1553.50 284.22 1555.30 296.03
  Q 1558.77 318.76 1547.57 338.58
  Q 1543.89 345.08 1535.33 351.08
  C 1527.58 356.51 1518.08 360.20 1508.25 360.91
  C 1496.43 361.78 1484.97 362.87 1474.27 360.34
  C 1454.73 355.71 1436.53 349.18 1420.26 337.99
  C 1384.65 313.49 1361.18 276.04 1355.93 233.27
  C 1351.64 198.23 1358.76 163.44 1375.58 132.32
  Q 1387.14 110.95 1402.53 93.86
  C 1421.40 72.91 1445.07 58.52 1471.90 47.67
  C 1488.04 41.14 1504.17 39.09 1521.51 39.01
  Z"
/>
<path fill="#e70b5a" d="
  M 2190.00 91.72
  L 2190.00 98.24
  Q 2189.07 111.93 2180.19 122.94
  Q 2174.17 130.41 2170.06 134.30
  Q 2136.68 165.95 2094.77 184.02
  Q 2093.99 184.35 2093.53 184.75
  A 0.67 0.66 -43.9 0 0 2093.51 185.75
  Q 2115.64 206.05 2134.01 230.48
  Q 2153.36 256.21 2163.84 286.40
  Q 2168.60 300.11 2169.60 312.58
  Q 2170.07 318.34 2168.29 326.82
  C 2166.48 335.45 2162.61 342.69 2156.10 348.59
  C 2150.10 354.03 2142.57 358.83 2134.56 360.33
  Q 2129.32 361.31 2121.12 360.80
  C 2105.55 359.83 2092.63 346.79 2084.54 334.71
  C 2074.28 319.40 2066.11 302.02 2059.11 285.39
  Q 2050.72 265.44 2037.98 233.81
  Q 2036.82 230.93 2035.07 227.39
  A 0.39 0.39 0.0 0 0 2034.33 227.55
  Q 2034.18 231.13 2034.47 236.25
  Q 2035.00 245.74 2037.53 274.74
  C 2039.31 295.09 2037.50 315.09 2028.35 333.36
  Q 2024.33 341.38 2016.35 345.74
  C 2003.49 352.79 1989.70 350.85 1980.29 339.19
  C 1968.42 324.48 1970.38 302.65 1968.57 286.77
  A 0.46 0.46 0.0 0 0 1967.67 286.69
  Q 1959.16 314.08 1938.28 335.31
  Q 1928.10 345.66 1916.78 351.33
  Q 1904.82 357.32 1891.33 359.94
  Q 1857.57 366.48 1826.68 353.96
  C 1812.10 348.05 1803.20 339.55 1793.54 326.19
  Q 1788.37 319.03 1784.26 309.39
  C 1777.90 294.45 1774.30 279.98 1770.43 263.11
  Q 1769.76 260.15 1768.18 257.63
  A 0.57 0.56 -54.7 0 0 1767.15 257.81
  C 1761.60 281.78 1755.15 303.72 1740.84 323.72
  C 1726.63 343.59 1704.23 356.14 1680.30 361.04
  Q 1674.31 362.27 1663.62 362.07
  Q 1655.07 361.92 1646.89 361.19
  Q 1638.71 360.46 1625.83 356.22
  C 1598.33 347.17 1581.73 326.66 1572.29 299.99
  Q 1553.59 247.14 1552.70 189.51
  C 1552.35 166.57 1556.32 144.39 1566.51 124.03
  C 1580.25 96.58 1604.54 78.62 1633.73 69.71
  C 1644.24 66.50 1651.96 65.71 1663.50 65.58
  C 1675.18 65.45 1685.87 65.47 1695.59 68.41
  Q 1711.05 73.08 1725.18 82.80
  Q 1749.73 99.69 1759.89 128.85
  Q 1761.80 134.32 1763.95 143.06
  Q 1764.23 144.16 1764.76 145.02
  A 0.40 0.40 0.0 0 0 1765.48 144.95
  C 1769.23 135.04 1772.49 126.38 1778.52 117.51
  Q 1804.22 79.68 1847.81 68.27
  Q 1857.13 65.83 1866.34 65.61
  Q 1881.38 65.26 1893.18 66.37
  Q 1899.46 66.96 1908.80 70.47
  C 1934.87 80.27 1955.04 98.23 1966.02 124.00
  Q 1968.27 129.28 1971.34 137.06
  A 0.34 0.34 0.0 0 0 1971.99 136.96
  Q 1972.37 131.89 1972.37 129.75
  Q 1972.41 106.23 1973.44 82.02
  Q 1973.95 70.06 1979.30 59.02
  Q 1984.49 48.30 1995.07 43.57
  C 2000.75 41.02 2006.13 41.15 2012.75 40.96
  C 2020.06 40.76 2028.45 45.72 2032.57 50.57
  Q 2036.95 55.72 2039.60 65.02
  Q 2042.76 76.13 2043.53 89.25
  Q 2045.48 122.25 2038.12 157.13
  Q 2037.56 159.74 2037.47 162.09
  A 0.40 0.40 0.0 0 0 2038.13 162.41
  C 2041.88 159.10 2046.84 154.32 2050.06 150.97
  Q 2083.42 116.33 2120.27 88.79
  Q 2129.00 82.26 2138.88 76.41
  C 2151.71 68.80 2175.41 59.91 2185.71 76.74
  C 2188.64 81.53 2189.23 86.30 2190.00 91.72
  Z
  M 1657.15 161.38
  C 1645.80 168.34 1637.75 182.13 1634.32 194.56
  Q 1624.32 230.84 1634.70 267.27
  C 1637.09 275.64 1641.67 285.85 1648.41 291.33
  C 1660.05 300.79 1675.30 302.88 1685.84 290.58
  C 1696.81 277.76 1701.07 262.82 1702.88 246.18
  C 1705.23 224.56 1706.57 202.34 1702.12 181.68
  C 1699.98 171.71 1694.81 159.44 1684.82 156.21
  C 1675.83 153.30 1665.28 156.39 1657.15 161.38
  Z
  M 1869.74 298.69
  C 1878.97 300.73 1889.21 297.61 1895.02 290.46
  C 1901.53 282.46 1906.00 271.31 1908.10 261.07
  Q 1911.61 243.88 1912.47 225.48
  Q 1913.62 200.96 1910.83 186.22
  Q 1908.72 175.02 1902.84 165.26
  C 1895.86 153.68 1882.09 153.02 1870.77 158.03
  C 1849.97 167.24 1841.48 186.32 1839.36 208.07
  Q 1837.49 227.16 1839.20 249.27
  Q 1840.18 261.98 1845.03 274.53
  C 1849.64 286.44 1857.12 295.91 1869.74 298.69
  Z"
/>
<path fill="#e70b5a" d="
  M 896.37 117.70
  C 896.39 126.38 889.28 136.93 883.49 141.94
  C 876.35 148.11 864.47 151.47 855.77 146.60
  C 842.13 138.97 845.22 119.59 852.73 108.47
  C 860.32 97.25 873.40 91.42 886.36 97.37
  C 894.85 101.27 896.35 109.25 896.37 117.70
  Z"
/>
<path fill="#e70b5a" d="
  M 873.05 297.03
  C 867.64 298.54 861.49 295.84 858.05 292.01
  C 848.21 281.07 846.51 265.43 846.62 250.99
  Q 846.88 218.67 850.89 183.85
  C 851.92 174.85 853.79 166.28 859.75 160.52
  C 866.05 154.42 875.18 153.44 881.61 160.00
  C 888.46 166.99 891.87 177.63 893.71 187.28
  C 898.87 214.28 895.61 242.85 890.41 270.28
  C 888.43 280.71 884.31 293.90 873.05 297.03
  Z"
/>
<path fill="#e70b5a" d="
  M 1114.99 268.27
  Q 1114.65 268.35 1114.37 268.61
  C 1103.96 277.80 1094.03 284.71 1079.45 282.84
  C 1055.76 279.81 1050.48 252.94 1053.22 233.48
  C 1056.56 209.75 1068.31 186.26 1091.29 176.58
  Q 1099.27 173.21 1107.46 175.06
  C 1119.70 177.82 1126.48 187.02 1131.96 198.51
  Q 1135.59 206.12 1136.12 210.29
  Q 1137.56 221.55 1138.26 238.25
  Q 1139.18 260.25 1139.27 280.00
  Q 1139.30 285.63 1138.98 288.75
  C 1138.43 294.19 1135.44 300.21 1128.77 297.12
  C 1122.48 294.21 1120.23 289.34 1118.96 282.77
  Q 1117.69 276.14 1116.33 269.14
  A 1.11 1.11 0.0 0 0 1114.99 268.27
  Z
  M 1109.34 210.54
  Q 1104.35 209.21 1100.29 213.90
  C 1096.71 218.04 1086.59 232.48 1094.92 235.63
  C 1104.67 239.31 1114.70 215.33 1110.20 211.02
  A 2.01 1.99 73.9 0 0 1109.34 210.54
  Z"
/>
<path fill="#e70b5a" d="
  M 1183.80 208.51
  A 1.42 1.42 0.0 0 0 1185.92 209.32
  Q 1188.64 207.60 1194.17 203.70
  Q 1205.08 196.00 1218.67 196.09
  Q 1222.83 196.12 1226.12 197.42
  Q 1238.47 202.31 1243.61 214.09
  C 1254.54 239.15 1258.70 266.92 1258.30 294.25
  C 1258.18 302.29 1258.42 320.02 1247.27 321.61
  C 1244.35 322.03 1239.24 315.73 1238.04 314.00
  C 1232.29 305.72 1229.17 297.33 1227.04 286.56
  C 1225.22 277.34 1221.88 259.47 1217.95 247.06
  C 1212.45 229.66 1195.55 241.37 1188.30 248.83
  Q 1183.56 253.71 1182.19 261.74
  C 1180.93 269.14 1180.38 277.30 1177.83 285.07
  C 1175.18 293.17 1166.15 299.92 1158.12 293.01
  C 1150.06 286.06 1147.05 272.26 1146.50 261.98
  Q 1145.47 242.77 1148.34 220.06
  C 1149.98 207.03 1153.71 192.62 1163.68 183.69
  C 1170.84 177.27 1177.61 180.17 1180.38 188.63
  Q 1183.32 197.64 1183.48 207.21
  A 1.28 1.10 40.8 0 0 1183.53 207.55
  L 1183.80 208.51
  Z"
/>
<path fill="#e70b5a" d="
  M 1019.05 213.20
  Q 1012.37 217.74 1009.78 221.34
  Q 998.78 236.63 994.64 249.60
  C 993.98 251.66 992.87 262.48 996.51 264.37
  C 1000.54 266.47 1004.34 262.35 1007.27 259.27
  Q 1015.55 250.56 1021.31 245.66
  Q 1024.64 242.83 1028.37 245.12
  C 1037.16 250.51 1034.72 265.81 1031.63 273.68
  C 1026.75 286.10 1015.12 294.35 1002.01 296.26
  C 985.26 298.71 974.96 285.78 969.44 272.30
  Q 966.20 264.38 966.08 251.85
  Q 965.93 235.82 968.69 223.48
  C 973.46 202.22 989.74 181.95 1013.15 180.80
  C 1025.16 180.21 1036.33 185.03 1042.16 195.58
  C 1045.33 201.31 1046.56 208.58 1044.17 214.45
  C 1042.23 219.24 1036.76 224.01 1031.27 222.23
  C 1027.03 220.86 1022.90 216.06 1020.08 213.30
  A 0.82 0.81 -39.2 0 0 1019.05 213.20
  Z"
/>
</svg>
